<?xml version="1.0" encoding="UTF-8" standalone="no"?>
<!DOCTYPE svg PUBLIC "-//W3C//DTD SVG 1.1//EN" "http://www.w3.org/Graphics/SVG/1.1/DTD/svg11.dtd">
<svg xmlns:xl="http://www.w3.org/1999/xlink" xmlns="http://www.w3.org/2000/svg" xmlns:dc="http://purl.org/dc/elements/1.1/" version="1.1" viewBox="6.6 3.750396 124.4 14.124792" width="124.4" height="14.124792">
  <defs/>
  <metadata> Produced by OmniGraffle 7.23\n2024-09-26 07:35:34 +0000</metadata>
  <g id="Canvas_1" stroke="none" fill-opacity="1" stroke-opacity="1" stroke-dasharray="none" fill="none">
    <title>Canvas 1</title>
    <rect fill="white" x="6.6" y="3.750396" width="124.4" height="14.124792"/>
    <g id="Canvas_1_Layer_1">
      <title>Layer 1</title>
      <g id="Group_12">
        <title>Group_65</title>
        <g id="Group_15">
          <title>Graphic_67</title>
          <g id="Graphic_16">
            <path d="M 8.752758 5.733738 C 11.548731 3.0251396 16.019374 3.0979514 18.727972 5.908486 C 19.033782 5.50074 19.295904 5.049307 19.485215 4.583312 C 20.37352 7.29191 20.912326 9.563638 20.708453 11.325683 C 20.606516 12.811043 20.024022 14.238154 19.062907 15.374018 C 16.55818 18.34474 12.1021 18.72336 9.13138 16.218635 L 9.074547 16.168073 L 9.071525 16.166082 C 9.062221 16.159606 9.053044 16.152853 9.044005 16.145823 C 9.016889 16.124733 8.992267 16.101772 8.970137 16.077264 L 8.962166 16.068184 L 8.869257 15.985637 C 8.778647 15.90797 8.688037 15.830305 8.607654 15.742412 L 8.57801 15.708952 C 5.869412 12.91298 5.956786 8.442336 8.752758 5.733738 Z M 9.801248 15.213832 C 9.539126 15.009959 9.160504 15.039084 8.956631 15.301206 C 8.777364 15.531693 8.778247 15.852255 8.959281 16.064883 L 8.962166 16.068184 L 9.074547 16.168073 L 9.085574 16.175588 C 9.340114 16.34296 9.68258 16.308364 9.877923 16.071799 L 9.888622 16.058449 C 10.092495 15.796326 10.048808 15.417705 9.801248 15.213832 Z M 19.412403 5.31143 C 18.684285 6.840477 16.878553 8.005466 15.32038 8.369525 C 13.849583 8.719021 12.568096 8.427774 11.213797 8.952019 C 8.126577 10.13157 8.184826 13.801283 9.87406 14.631338 L 9.975996 14.689587 C 9.975996 14.689587 11.196176 14.446978 12.402798 14.126592 L 12.506161 14.098944 C 12.988097 13.969065 13.462224 13.827496 13.849583 13.684785 C 15.859188 12.942104 18.072666 11.107248 18.800784 8.981143 C 18.422163 11.194622 16.514494 13.335288 14.606826 14.310966 C 13.58746 14.83521 12.801093 14.95171 11.126422 15.534204 C 10.92255 15.607016 10.762363 15.679827 10.762363 15.679827 C 10.782798 15.677009 10.803232 15.674259 10.823618 15.671576 L 10.864313 15.666303 L 10.904796 15.661212 C 11.274649 15.615373 11.60698 15.592453 11.60698 15.592453 C 13.980644 15.475954 17.708607 16.262322 19.441528 13.946907 C 21.218135 11.587805 20.227895 7.772468 19.412403 5.31143 Z" fill="#6db33f"/>
          </g>
        </g>
        <g id="Group_13">
          <title>Graphic_66</title>
          <g id="Graphic_14">
            <path d="M 9.801248 15.213832 C 10.048808 15.417705 10.092495 15.796326 9.888622 16.058449 C 9.684749 16.32057 9.306128 16.349696 9.044005 16.145823 C 8.781883 15.94195 8.752758 15.563329 8.956631 15.301206 C 9.160504 15.039084 9.539126 15.009959 9.801248 15.213832 Z M 19.412403 5.31143 C 20.227895 7.772468 21.218135 11.587805 19.441528 13.946907 C 17.708607 16.262322 13.980644 15.475954 11.60698 15.592453 C 11.60698 15.592453 11.274649 15.615373 10.904796 15.661212 L 10.864313 15.666303 C 10.830478 15.670622 10.79642 15.67513 10.762363 15.679827 C 10.762363 15.679827 10.92255 15.607016 11.126422 15.534204 C 12.801093 14.95171 13.58746 14.83521 14.606826 14.310966 C 16.514494 13.335288 18.422163 11.194622 18.800784 8.981143 C 18.072666 11.107248 15.859188 12.942104 13.849583 13.684785 C 12.466159 14.194467 9.975996 14.689587 9.975996 14.689587 L 9.87406 14.631338 C 8.184826 13.801283 8.126577 10.13157 11.213797 8.952019 C 12.568096 8.427774 13.849583 8.719021 15.32038 8.369525 C 16.878553 8.005466 18.684285 6.840477 19.412403 5.31143 Z" fill="white"/>
          </g>
        </g>
      </g>
      <g id="Graphic_17">
        <text transform="translate(23 5.7007925)" fill="#666">
          <tspan font-family="Helvetica Neue" font-size="8" fill="#666" x=".536" y="8" xml:space="preserve">Spring Thymeleaf Showcase</tspan>
        </text>
      </g>
    </g>
  </g>
</svg>
